<?xml version="1.0" encoding="utf-8"?>
<!-- Generator: Adobe Illustrator 24.1.0, SVG Export Plug-In . SVG Version: 6.00 Build 0)  -->
<svg version="1.1" id="Layer_1" xmlns="http://www.w3.org/2000/svg" xmlns:xlink="http://www.w3.org/1999/xlink" x="0px" y="0px"
	 viewBox="0 0 142.01 173.07" style="enable-background:new 0 0 142.01 173.07;" xml:space="preserve">
<rect x="0.66" y="154.76" width="139.86" height="1.04"/>
<path d="M79.41,123.73h-2.36V62.62c-0.04-0.59-0.87-16.3,11.07-29.27c0.18-0.19,0.36-0.38,0.54-0.57
	C80.9,25.2,72.85,20.35,71.08,19.5c-1.78,0.85-9.83,5.7-17.59,13.29c0.18,0.18,0.35,0.37,0.53,0.56
	c11.97,12.97,11.14,28.68,11.1,29.35l0,61.03h-2.36V62.62c0.01-0.23,0.79-15.47-10.47-27.67c-0.43-0.46-0.86-0.91-1.29-1.35
	l-0.83-0.83l0.83-0.83c5.18-5.21,16.29-13.9,19.73-14.78l-0.01-0.04c0.07-0.02,0.17-0.03,0.28-0.02c0.19-0.03,0.35-0.02,0.47,0.02
	l-0.03,0.08c2.97,0.91,12.66,7.62,19.73,14.73l0.83,0.83l-0.83,0.83c-0.44,0.44-0.87,0.89-1.3,1.36
	C78.59,47.18,79.39,62.39,79.4,62.55L79.41,123.73z"/>
<path d="M142.01,124.98h-1.18l-39.57-0.07V62.62c0.01-0.23,0.79-15.47-10.47-27.67c-0.43-0.47-0.87-0.92-1.31-1.36l-0.83-0.83
	l0.83-0.83c5.16-5.21,16.24-13.88,19.67-14.77l-0.01-0.04c0.08-0.03,0.19-0.04,0.31-0.02c0.18-0.02,0.33-0.02,0.45,0.02l-0.02,0.06
	c3.14,0.89,13.58,8.06,21.04,16.17c11.77,12.77,11.13,28.22,11.07,29.3L142.01,124.98z M103.62,122.55l36.02,0.06l-0.02-60.02
	l0-0.04c0.01-0.15,0.79-15.39-10.45-27.59c-8.57-9.3-17.88-14.61-19.66-15.46c-1.77,0.85-9.79,5.69-17.54,13.28
	c0.18,0.19,0.36,0.38,0.54,0.58c11.97,12.97,11.14,28.68,11.09,29.34L103.62,122.55z M109.78,19.38L109.78,19.38L109.78,19.38z"/>
<path d="M40.88,124.98H0.03V62.62c-0.04-0.59-0.87-16.3,11.1-29.27c7.48-8.11,17.95-15.28,21.09-16.17l-0.02-0.06
	c0.09-0.03,0.2-0.03,0.35-0.01c0.17-0.03,0.31-0.02,0.41,0.01l-0.03,0.08c2.97,0.91,12.67,7.63,19.74,14.74l0.83,0.83l-0.83,0.83
	c-0.43,0.44-0.86,0.88-1.29,1.35C40.1,47.15,40.89,62.39,40.9,62.55L40.88,124.98z M2.39,122.61h36.12l0.02-59.99
	c-0.04-0.59-0.87-16.3,11.1-29.27c0.18-0.19,0.35-0.38,0.53-0.56c-7.77-7.6-15.82-12.45-17.59-13.3
	c-1.78,0.84-11.11,6.15-19.7,15.46C1.6,47.15,2.38,62.39,2.39,62.55L2.39,122.61z M32.82,19.39L32.82,19.39L32.82,19.39z
	 M32.3,19.38L32.3,19.38L32.3,19.38z"/>
<path d="M65.35,4.99c3.54-3.08,5.8-4.69,5.95-4.62c0.14-0.07,2.38,1.77,5.47,4.3l-4.97,7.79c-0.29-0.19-0.47-0.27-0.5-0.25
	c-0.04-0.02-0.08-0.06-0.55,0.27L65.35,4.99z"/>
<path d="M103.78,4.62c3.54-3.08,5.8-4.69,5.95-4.62c0.14-0.07,2.38,1.77,5.47,4.31l-4.97,7.79c-0.29-0.19-0.47-0.27-0.5-0.25
	c-0.04-0.02-0.08-0.06-0.55,0.27L103.78,4.62z"/>
<path d="M26.74,4.81c3.54-3.08,5.79-4.69,5.95-4.62c0.14-0.07,2.38,1.77,5.47,4.31l-4.97,7.79c-0.29-0.19-0.47-0.27-0.5-0.25
	c-0.04-0.02-0.09-0.06-0.55,0.27L26.74,4.81z"/>
<g>
	<path d="M2.18,137.69h0.2l4.8,8.24h0.1l4.8-8.24h0.2l1.51,12.13h-1.02l-1.11-9.67h-0.1l-4.36,7.59H7.06l-4.25-7.33h-0.1l-1.12,9.41
		H0.66L2.18,137.69z"/>
	<path d="M22.49,137.59h0.23l5.4,12.23h-1.14l-1.51-3.47h-5.84l-1.48,3.47h-1.04L22.49,137.59z M25.13,145.5l-2.6-5.9h-0.03
		l-2.48,5.9H25.13z"/>
	<path d="M33.12,140.22h-0.07v9.6h-0.92v-12.11h0.22l7.85,9.74h0.07v-9.57h0.92v12.11h-0.23L33.12,140.22z"/>
	<path d="M45.51,148.69l0.52-0.81h0.1c0.76,0.58,2,1.16,3.51,1.16c1.24,0,2.62-0.62,2.62-2.18c0-1.06-1.02-2.01-2.99-2.86
		c-2.33-1-3.31-2.16-3.31-3.44c0-1.68,1.38-2.91,3.41-2.91c1.21,0,2.55,0.38,3.44,1.03l-0.34,0.9h-0.1
		c-0.79-0.58-2.01-1.01-3.14-1.01c-1.07,0-2.23,0.6-2.23,1.88c0,1.06,0.65,1.58,2.75,2.63c2.06,1,3.54,1.78,3.54,3.66
		c0,2.08-1.7,3.26-3.59,3.26C47.79,149.99,46.35,149.37,45.51,148.69z"/>
	<path d="M58.08,137.87h1.01v11.95h-1.01V137.87z"/>
	<path d="M63.99,143.92c0-3.81,2.92-6.3,6.23-6.3c3.54,0,5.91,2.76,5.91,5.87c0,4.74-3.47,6.6-6.24,6.6
		C65.92,150.09,63.99,147.23,63.99,143.92z M75.02,143.72c0-2.91-2.15-5.22-5-5.22c-2.95,0-4.94,2.06-4.94,5.17
		c0,3.34,1.96,5.55,4.9,5.55C73.33,149.22,75.02,146.95,75.02,143.72z"/>
	<path d="M81.87,140.22h-0.07v9.6h-0.92v-12.11h0.22l7.85,9.74h0.07v-9.57h0.92v12.11h-0.23L81.87,140.22z"/>
	<path d="M101.7,137.87h1.01v5.3h7.15v-5.3h1.01v11.95h-1.01v-5.78h-7.15v5.78h-1.01V137.87z"/>
	<path d="M116.66,137.87h1.01v11.95h-1.01V137.87z"/>
	<path d="M123.46,137.87h1.01v11.03h5.25l-0.13,0.91h-6.13V137.87z"/>
	<path d="M134.07,137.87h1.01v11.03h5.25l-0.13,0.91h-6.13V137.87z"/>
</g>
<g>
	<path d="M12.08,171.68l0.52-0.81h0.1c0.76,0.58,2,1.16,3.51,1.16c1.24,0,2.62-0.62,2.62-2.18c0-1.06-1.02-2.01-2.99-2.86
		c-2.33-1-3.31-2.16-3.31-3.44c0-1.68,1.38-2.91,3.41-2.91c1.21,0,2.55,0.38,3.44,1.03l-0.34,0.9h-0.1
		c-0.79-0.58-2.01-1.01-3.14-1.01c-1.07,0-2.23,0.6-2.23,1.88c0,1.06,0.65,1.58,2.75,2.63c2.06,1,3.54,1.78,3.54,3.66
		c0,2.08-1.69,3.26-3.59,3.26C14.37,172.97,12.92,172.36,12.08,171.68z"/>
	<path d="M28.32,160.58h0.23l5.4,12.23h-1.14l-1.51-3.47h-5.84l-1.48,3.47h-1.04L28.32,160.58z M30.95,168.49l-2.6-5.9h-0.03
		l-2.48,5.9H30.95z"/>
	<path d="M38.94,163.2h-0.07v9.6h-0.92v-12.11h0.22l7.85,9.74h0.07v-9.57h0.92v12.11h-0.23L38.94,163.2z"/>
	<path d="M51.76,167.06c0-4.15,2.92-6.41,6.03-6.41c2.06,0,3.12,0.65,3.74,1.1l-0.37,1.16H61.1c-0.92-0.96-1.98-1.4-3.47-1.4
		c-2.43,0-4.78,1.76-4.78,5.03c0,3.39,1.81,5.63,4.7,5.63c1.53,0,2.77-0.73,3.61-1.51h0.1l0.47,0.78c-1.12,1.06-2.6,1.63-4.5,1.63
		C54.31,173.07,51.76,170.8,51.76,167.06z"/>
	<path d="M69.35,161.74h-4.16l-0.07-0.88h9.77l-0.1,0.88h-4.43v11.07h-1.01V161.74z"/>
	<path d="M78.84,169v-8.14h1.01v8.18c0,2.14,1.51,3.16,3.44,3.16c1.78,0,3.36-0.78,3.36-3.16v-8.18h1.01v7.99
		c0,2.63-1.93,4.19-4.45,4.19C80.56,173.04,78.84,171.68,78.84,169z"/>
	<path d="M96.56,160.58h0.23l5.4,12.23h-1.14l-1.51-3.47h-5.84l-1.48,3.47h-1.04L96.56,160.58z M99.2,168.49l-2.6-5.9h-0.03
		l-2.48,5.9H99.2z"/>
	<path d="M106.2,160.86h3.17c2.27,0,3.74,1.11,3.74,3.09c0,1.84-1.12,2.96-2.6,3.27v0.03l3.29,5.48v0.07h-1.12l-3.24-5.35h-2.23
		v5.35h-1.01V160.86z M109.54,166.64c1.34,0,2.48-0.78,2.48-2.44c0-1.94-1.46-2.53-2.55-2.53h-2.27v4.97H109.54z"/>
	<path d="M121.78,168.31l-5.17-7.34v-0.1h1.24l4.5,6.45h0.1l4.45-6.45h1.09v0.1l-5.2,7.34v4.5h-1.01V168.31z"/>
</g>
</svg>
